<?xml version="1.0" standalone="no"?>
<svg xmlns:xlink="http://www.w3.org/1999/xlink" id="wave" style="transform:rotate(0deg); transition: 0.3s" viewBox="0 0 1440 490" version="1.1" xmlns="http://www.w3.org/2000/svg"><defs><linearGradient id="sw-gradient-0" x1="0" x2="0" y1="1" y2="0"><stop stop-color="rgba(239, 253, 253, 1)" offset="0%"/><stop stop-color="rgba(239, 253, 253, 1)" offset="100%"/></linearGradient></defs><path style="transform:translate(0, 0px); opacity:1" fill="url(#sw-gradient-0)" d="M0,98L34.3,130.7C68.6,163,137,229,206,253.2C274.3,278,343,261,411,228.7C480,196,549,147,617,114.3C685.7,82,754,65,823,114.3C891.4,163,960,278,1029,285.8C1097.1,294,1166,196,1234,204.2C1302.9,212,1371,327,1440,318.5C1508.6,310,1577,180,1646,171.5C1714.3,163,1783,278,1851,310.3C1920,343,1989,294,2057,277.7C2125.7,261,2194,278,2263,245C2331.4,212,2400,131,2469,114.3C2537.1,98,2606,147,2674,187.8C2742.9,229,2811,261,2880,294C2948.6,327,3017,359,3086,375.7C3154.3,392,3223,392,3291,334.8C3360,278,3429,163,3497,163.3C3565.7,163,3634,278,3703,302.2C3771.4,327,3840,261,3909,196C3977.1,131,4046,65,4114,98C4182.9,131,4251,261,4320,294C4388.6,327,4457,261,4526,196C4594.3,131,4663,65,4731,81.7C4800,98,4869,196,4903,245L4937.1,294L4937.1,490L4902.9,490C4868.6,490,4800,490,4731,490C4662.9,490,4594,490,4526,490C4457.1,490,4389,490,4320,490C4251.4,490,4183,490,4114,490C4045.7,490,3977,490,3909,490C3840,490,3771,490,3703,490C3634.3,490,3566,490,3497,490C3428.6,490,3360,490,3291,490C3222.9,490,3154,490,3086,490C3017.1,490,2949,490,2880,490C2811.4,490,2743,490,2674,490C2605.7,490,2537,490,2469,490C2400,490,2331,490,2263,490C2194.3,490,2126,490,2057,490C1988.6,490,1920,490,1851,490C1782.9,490,1714,490,1646,490C1577.1,490,1509,490,1440,490C1371.4,490,1303,490,1234,490C1165.7,490,1097,490,1029,490C960,490,891,490,823,490C754.3,490,686,490,617,490C548.6,490,480,490,411,490C342.9,490,274,490,206,490C137.1,490,69,490,34,490L0,490Z"/></svg>